<mxfile host="Electron" modified="2023-12-20T00:29:35.860Z" agent="Mozilla/5.0 (Windows NT 10.0; Win64; x64) AppleWebKit/537.36 (KHTML, like Gecko) draw.io/22.1.2 Chrome/114.0.5735.289 Electron/25.9.4 Safari/537.36" etag="-0026K_w_Z-RfGJR71up" version="22.1.2" type="device">
  <diagram name="Pagina-1" id="EgEzfpW5ByBojAWvSxUq">
    <mxGraphModel dx="1036" dy="606" grid="1" gridSize="10" guides="1" tooltips="1" connect="1" arrows="1" fold="1" page="1" pageScale="1" pageWidth="827" pageHeight="1169" math="0" shadow="0">
      <root>
        <mxCell id="0" />
        <mxCell id="1" parent="0" />
        <mxCell id="sazEwLXklqETUKgtWihd-7" value="&lt;b&gt;&lt;font style=&quot;font-size: 30px;&quot;&gt;Index.html:&lt;/font&gt;&lt;/b&gt;&lt;br&gt;&lt;font style=&quot;font-size: 14px;&quot;&gt;&lt;font style=&quot;&quot;&gt;È la pagina principale del sito web, ed è suddivisa in 6 sezioni principali:&lt;/font&gt;&lt;br&gt;&lt;/font&gt;&lt;div style=&quot;text-align: justify;&quot;&gt;&lt;span style=&quot;background-color: initial;&quot;&gt;&lt;font style=&quot;font-size: 14px;&quot;&gt;&lt;span style=&quot;white-space: pre;&quot;&gt;&#x9;&lt;/span&gt;- &lt;b&gt;Storia del tennis&lt;/b&gt;: Attraverso una linea temporale contornata da box a comparsa vengono &lt;span style=&quot;white-space: pre;&quot;&gt;&#x9;&lt;/span&gt;presentati i momenti storici fondamentali che hanno contribuito allo sviluppo dello sport del &lt;span style=&quot;white-space: pre;&quot;&gt;&#x9;&lt;/span&gt;tennis come lo conosciamo oggi.&lt;/font&gt;&lt;/span&gt;&lt;/div&gt;&lt;div style=&quot;text-align: justify;&quot;&gt;&lt;span style=&quot;background-color: initial;&quot;&gt;&lt;font style=&quot;font-size: 14px;&quot;&gt;&lt;span style=&quot;white-space: pre;&quot;&gt;&#x9;&lt;/span&gt;- &lt;b&gt;Regolamento&lt;/b&gt;: Attraverso diversi box animati e a comparsa vengono esposte, in modo &lt;span style=&quot;white-space: pre;&quot;&gt;&#x9;&lt;/span&gt;suddiviso e organizzato per categoria, tutte le regole fondamentali del tennis.&lt;/font&gt;&lt;/span&gt;&lt;/div&gt;&lt;div style=&quot;text-align: justify;&quot;&gt;&lt;span style=&quot;background-color: initial;&quot;&gt;&lt;font style=&quot;font-size: 14px;&quot;&gt;&lt;span style=&quot;white-space: pre;&quot;&gt;&#x9;&lt;/span&gt;- &lt;b&gt;Tecnica di gioco&lt;/b&gt;: Attraverso diversi box animati e a comparsa vengono presentati i concetti &lt;span style=&quot;white-space: pre;&quot;&gt;&#x9;&lt;/span&gt;e le tecniche fondamentali da conoscere, comprendere e padroneggiare per imparare a &lt;span style=&quot;white-space: pre;&quot;&gt;&#x9;&lt;/span&gt;giocare a tennis a livello agonistico.&lt;/font&gt;&lt;/span&gt;&lt;/div&gt;&lt;div style=&quot;text-align: justify;&quot;&gt;&lt;span style=&quot;background-color: initial;&quot;&gt;&lt;font style=&quot;font-size: 14px;&quot;&gt;&lt;span style=&quot;white-space: pre;&quot;&gt;&#x9;&lt;/span&gt;- &lt;b&gt;Migliori giocatori: &lt;/b&gt;In questa sezione vengono presentati i migliori tennisti storici e attuali, &lt;span style=&quot;white-space: pre;&quot;&gt;&#x9;&lt;/span&gt;con informazioni e dati specifici in merito alla loro provenienza, età, caratteristiche fisiche ecc.&lt;/font&gt;&lt;/span&gt;&lt;/div&gt;&lt;div style=&quot;text-align: justify;&quot;&gt;&lt;span style=&quot;background-color: initial;&quot;&gt;&lt;font style=&quot;font-size: 14px;&quot;&gt;&lt;span style=&quot;white-space: pre;&quot;&gt;&#x9;&lt;/span&gt;- &lt;b&gt;Curiosità: &lt;/b&gt;In questa sezione vengono presentate alcune tra le più interessanti curiosità &lt;span style=&quot;white-space: pre;&quot;&gt;&#x9;&lt;/span&gt;sul&amp;nbsp;tennis (le origini della parola &quot;tennis&quot;, la partita pù lunga, la battuta pù veloce ecc.).&lt;/font&gt;&lt;/span&gt;&lt;/div&gt;&lt;div style=&quot;text-align: justify;&quot;&gt;&lt;span style=&quot;background-color: initial;&quot;&gt;&lt;font style=&quot;&quot;&gt;&lt;span style=&quot;font-size: 14px; white-space: pre;&quot;&gt;&#x9;&lt;/span&gt;&lt;span style=&quot;font-size: 14px;&quot;&gt;- &lt;/span&gt;&lt;span style=&quot;font-weight: bold; font-size: 14px;&quot;&gt;Anteprima del negozio online&lt;/span&gt;&lt;b style=&quot;font-size: 11.6667px;&quot;&gt;: &lt;/b&gt;&lt;font style=&quot;font-size: 14px;&quot;&gt;Piccola anteprima di presentazione del negozio online, a cui &lt;span style=&quot;white-space: pre;&quot;&gt;&#x9;&lt;/span&gt;è dedicata una pagina vera e propria (&quot;tennisShop.php&quot;).&lt;/font&gt;&lt;/font&gt;&lt;/span&gt;&lt;/div&gt;" style="rounded=1;whiteSpace=wrap;html=1;fillColor=#008a00;fontColor=#ffffff;strokeColor=#005700;" parent="1" vertex="1">
          <mxGeometry x="112.15" y="10" width="624.69" height="320" as="geometry" />
        </mxCell>
        <mxCell id="sazEwLXklqETUKgtWihd-8" value="&lt;font style=&quot;&quot;&gt;&lt;span style=&quot;font-weight: bold;&quot;&gt;&lt;font style=&quot;font-size: 30px;&quot;&gt;Login.PHP:&lt;/font&gt;&lt;/span&gt;&lt;br&gt;&lt;font style=&quot;font-size: 14px;&quot;&gt;Pagina contenente un form da compilare con le proprie credenziali per effettuare l&#39;accesso alla propria area riservata (ovvero alla pagina &quot;dashboard.PHP&quot;).&lt;/font&gt;&lt;br&gt;&lt;/font&gt;" style="rounded=1;whiteSpace=wrap;html=1;fillColor=#6a00ff;fontColor=#ffffff;strokeColor=#3700CC;" parent="1" vertex="1">
          <mxGeometry x="34.5" y="370" width="250" height="140" as="geometry" />
        </mxCell>
        <mxCell id="sazEwLXklqETUKgtWihd-9" value="&lt;font style=&quot;&quot;&gt;&lt;span style=&quot;font-weight: bold; font-size: 30px;&quot;&gt;Registration.PHP:&lt;/span&gt;&lt;br&gt;&lt;font style=&quot;font-size: 14px;&quot;&gt;Pagina contenente un form da compilare con le proprie informazioni personali (Nome, Cognome, Email, Password, Numero di Telefono, Città di Nascita, Via di Residenza, Data di Nascita).&lt;/font&gt;&lt;br&gt;&lt;/font&gt;" style="rounded=1;whiteSpace=wrap;html=1;fillColor=#6a00ff;fontColor=#ffffff;strokeColor=#3700CC;" parent="1" vertex="1">
          <mxGeometry x="480" y="360" width="334" height="160" as="geometry" />
        </mxCell>
        <mxCell id="sazEwLXklqETUKgtWihd-10" value="&lt;font style=&quot;&quot;&gt;&lt;b style=&quot;font-size: 30px;&quot;&gt;TennisShop.PHP:&lt;/b&gt;&lt;br&gt;&lt;font style=&quot;font-size: 14px;&quot;&gt;Questa pagina contiene tutti gli articoli sportivi che un utente può esplorare e, se interessato, salvare nel proprio carrello personale.&lt;/font&gt;&lt;br&gt;&lt;/font&gt;" style="rounded=1;whiteSpace=wrap;html=1;fillColor=#a20025;fontColor=#ffffff;strokeColor=#6F0000;" parent="1" vertex="1">
          <mxGeometry x="284.5" y="530" width="280" height="130" as="geometry" />
        </mxCell>
        <mxCell id="sazEwLXklqETUKgtWihd-11" value="&lt;font style=&quot;&quot;&gt;&lt;span style=&quot;font-weight: bold; font-size: 30px;&quot;&gt;Dashboard.PHP:&lt;/span&gt;&lt;br&gt;&lt;font style=&quot;font-size: 14px;&quot;&gt;Questa pagina corrisponde all&#39;area riservata dell&#39;utente, a cui quest&#39;ultimo può accedere solamente dopo aver inserito le proprie credenziali. In essa verranno salvate diverse informazioni personali dell&#39;utente (es: giocatori tifati, articoli sportivi salvati, colpi maggiormente padroneggiati, punteggio nella scala di valutazione ITR ecc.)&lt;/font&gt;&lt;br&gt;&lt;/font&gt;" style="rounded=1;whiteSpace=wrap;html=1;fillColor=#fa6800;fontColor=#000000;strokeColor=#C73500;" parent="1" vertex="1">
          <mxGeometry x="14" y="700" width="291" height="190" as="geometry" />
        </mxCell>
        <mxCell id="sazEwLXklqETUKgtWihd-12" value="" style="endArrow=classic;startArrow=classic;html=1;rounded=0;exitX=1;exitY=0.5;exitDx=0;exitDy=0;entryX=0;entryY=0.5;entryDx=0;entryDy=0;" parent="1" source="sazEwLXklqETUKgtWihd-8" target="sazEwLXklqETUKgtWihd-9" edge="1">
          <mxGeometry width="50" height="50" relative="1" as="geometry">
            <mxPoint x="350" y="340" as="sourcePoint" />
            <mxPoint x="400" y="290" as="targetPoint" />
          </mxGeometry>
        </mxCell>
        <mxCell id="sazEwLXklqETUKgtWihd-13" value="" style="endArrow=classic;startArrow=classic;html=1;rounded=0;entryX=0.5;entryY=1;entryDx=0;entryDy=0;exitX=0.5;exitY=0;exitDx=0;exitDy=0;" parent="1" source="sazEwLXklqETUKgtWihd-10" target="sazEwLXklqETUKgtWihd-7" edge="1">
          <mxGeometry width="50" height="50" relative="1" as="geometry">
            <mxPoint x="390" y="380" as="sourcePoint" />
            <mxPoint x="440" y="330" as="targetPoint" />
          </mxGeometry>
        </mxCell>
        <mxCell id="sazEwLXklqETUKgtWihd-14" value="" style="endArrow=classic;startArrow=classic;html=1;rounded=0;entryX=0.5;entryY=1;entryDx=0;entryDy=0;exitX=0.5;exitY=0;exitDx=0;exitDy=0;" parent="1" source="sazEwLXklqETUKgtWihd-8" target="sazEwLXklqETUKgtWihd-7" edge="1">
          <mxGeometry width="50" height="50" relative="1" as="geometry">
            <mxPoint x="129" y="270" as="sourcePoint" />
            <mxPoint x="179" y="220" as="targetPoint" />
          </mxGeometry>
        </mxCell>
        <mxCell id="sazEwLXklqETUKgtWihd-15" value="" style="endArrow=classic;startArrow=classic;html=1;rounded=0;entryX=0.5;entryY=1;entryDx=0;entryDy=0;exitX=0.5;exitY=0;exitDx=0;exitDy=0;" parent="1" source="sazEwLXklqETUKgtWihd-11" target="sazEwLXklqETUKgtWihd-8" edge="1">
          <mxGeometry width="50" height="50" relative="1" as="geometry">
            <mxPoint x="140" y="570" as="sourcePoint" />
            <mxPoint x="190" y="520" as="targetPoint" />
          </mxGeometry>
        </mxCell>
        <mxCell id="sazEwLXklqETUKgtWihd-16" value="" style="endArrow=classic;startArrow=classic;html=1;rounded=0;entryX=-0.001;entryY=0.534;entryDx=0;entryDy=0;entryPerimeter=0;exitX=0.5;exitY=0;exitDx=0;exitDy=0;" parent="1" source="sazEwLXklqETUKgtWihd-11" target="sazEwLXklqETUKgtWihd-10" edge="1">
          <mxGeometry width="50" height="50" relative="1" as="geometry">
            <mxPoint x="150" y="600" as="sourcePoint" />
            <mxPoint x="250" y="620" as="targetPoint" />
          </mxGeometry>
        </mxCell>
      </root>
    </mxGraphModel>
  </diagram>
</mxfile>
